{
	"asset":{
		"generator":"Khronos glTF Blender I/O v3.5.30",
		"version":"2.0"
	},
	"scene":0,
	"scenes":[
		{
			"name":"Scene",
			"nodes":[
				5
			]
		}
	],
	"nodes":[
		{
			"mesh":0,
			"name":"Amoung_us__0"
		},
		{
			"children":[
				0
			],
			"name":"Object_4",
			"translation":[
				0.06900763511657715,
				0,
				3.433586597442627
			]
		},
		{
			"children":[
				1
			],
			"name":"Amoung_us",
			"rotation":[
				-0.70710688829422,
				0,
				0,
				0.7071066498756409
			],
			"scale":[
				100,
				100,
				100
			]
		},
		{
			"children":[
				2
			],
			"name":"RootNode"
		},
		{
			"children":[
				3
			],
			"name":"c020c8a53f2a41b09ca72eedbc422e59.fbx",
			"rotation":[
				0.70710688829422,
				0,
				0,
				0.7071066498756409
			],
			"scale":[
				0.009999999776482582,
				0.009999999776482582,
				0.009999999776482582
			]
		},
		{
			"children":[
				4
			],
			"name":"Sketchfab_model",
			"rotation":[
				-0.5,
				-0.5,
				-0.5,
				0.5
			],
			"translation":[
				0,
				0,
				-2.7066971597378142e-06
			]
		}
	],
	"materials":[
		{
			"doubleSided":true,
			"name":"Scene_-_Root",
			"normalTexture":{
				"index":0
			},
			"occlusionTexture":{
				"index":1
			},
			"pbrMetallicRoughness":{
				"baseColorTexture":{
					"index":2
				},
				"metallicRoughnessTexture":{
					"index":1
				}
			}
		}
	],
	"meshes":[
		{
			"name":"Amoung_us__0",
			"primitives":[
				{
					"attributes":{
						"POSITION":0,
						"TEXCOORD_0":1,
						"NORMAL":2
					},
					"indices":3,
					"material":0
				}
			]
		}
	],
	"textures":[
		{
			"sampler":0,
			"source":0
		},
		{
			"sampler":0,
			"source":1
		},
		{
			"sampler":0,
			"source":2
		}
	],
	"images":[
		{
			"bufferView":4,
			"mimeType":"image/png",
			"name":"Scene_-_Root_normal"
		},
		{
			"bufferView":5,
			"mimeType":"image/png",
			"name":"Scene_-_Root_metallicRoughness"
		},
		{
			"bufferView":6,
			"mimeType":"image/png",
			"name":"Scene_-_Root_baseColor"
		}
	],
	"accessors":[
		{
			"bufferView":0,
			"componentType":5126,
			"count":1665,
			"max":[
				1.364039421081543,
				1.1999692916870117,
				1.0127620697021484
			],
			"min":[
				-1.5020546913146973,
				-1.1999692916870117,
				-3.3368749618530273
			],
			"type":"VEC3"
		},
		{
			"bufferView":1,
			"componentType":5126,
			"count":1665,
			"type":"VEC2"
		},
		{
			"bufferView":2,
			"componentType":5126,
			"count":1665,
			"type":"VEC3"
		},
		{
			"bufferView":3,
			"componentType":5123,
			"count":8802,
			"type":"SCALAR"
		}
	],
	"bufferViews":[
		{
			"buffer":0,
			"byteLength":19980,
			"byteOffset":0,
			"target":34962
		},
		{
			"buffer":0,
			"byteLength":13320,
			"byteOffset":19980,
			"target":34962
		},
		{
			"buffer":0,
			"byteLength":19980,
			"byteOffset":33300,
			"target":34962
		},
		{
			"buffer":0,
			"byteLength":17604,
			"byteOffset":53280,
			"target":34963
		},
		{
			"buffer":0,
			"byteLength":796075,
			"byteOffset":70884
		},
		{
			"buffer":0,
			"byteLength":1186921,
			"byteOffset":866960
		},
		{
			"buffer":0,
			"byteLength":128182,
			"byteOffset":2053884
		}
	],
	"samplers":[
		{
			"magFilter":9729,
			"minFilter":9987
		}
	],
	"buffers":[
		{
			"byteLength":2182068,
			"uri":"data:application/octet-stream;base64,"
		}
	]
}
