{
	"asset":{
		"generator":"Khronos glTF Blender I/O v3.5.30",
		"version":"2.0"
	},
	"scene":0,
	"scenes":[
		{
			"name":"Scene",
			"nodes":[
				0
			]
		}
	],
	"nodes":[
		{
			"mesh":0,
			"name":"low_poly_earth"
		}
	],
	"materials":[
		{
			"doubleSided":true,
			"name":"water",
			"pbrMetallicRoughness":{
				"baseColorFactor":[
					0.03168429061770439,
					0.18830277025699615,
					0.5,
					1
				],
				"metallicFactor":0,
				"roughnessFactor":0.5
			}
		},
		{
			"doubleSided":true,
			"name":"earth",
			"pbrMetallicRoughness":{
				"baseColorFactor":[
					0,
					0.8000000715255737,
					0.019422296434640884,
					1
				],
				"metallicFactor":0,
				"roughnessFactor":0.5
			}
		}
	],
	"meshes":[
		{
			"name":"Sphere.004",
			"primitives":[
				{
					"attributes":{
						"POSITION":0,
						"TEXCOORD_0":1,
						"NORMAL":2
					},
					"indices":3,
					"material":0
				},
				{
					"attributes":{
						"POSITION":4,
						"TEXCOORD_0":5,
						"NORMAL":6
					},
					"indices":7,
					"material":1
				},
				{
					"attributes":{
						"POSITION":8
					},
					"indices":9,
					"material":0,
					"mode":1
				}
			]
		}
	],
	"accessors":[
		{
			"bufferView":0,
			"componentType":5126,
			"count":2276,
			"max":[
				0.964901328086853,
				0.9753069281578064,
				0.9621639251708984
			],
			"min":[
				-0.9646192789077759,
				-0.9757384657859802,
				-0.9675606489181519
			],
			"type":"VEC3"
		},
		{
			"bufferView":1,
			"componentType":5126,
			"count":2276,
			"type":"VEC2"
		},
		{
			"bufferView":2,
			"componentType":5126,
			"count":2276,
			"type":"VEC3"
		},
		{
			"bufferView":3,
			"componentType":5123,
			"count":2292,
			"type":"SCALAR"
		},
		{
			"bufferView":4,
			"componentType":5126,
			"count":11814,
			"max":[
				0.9841111898422241,
				1.0133217573165894,
				0.9926793575286865
			],
			"min":[
				-0.9578160047531128,
				-0.9993601441383362,
				-1.001206398010254
			],
			"type":"VEC3"
		},
		{
			"bufferView":5,
			"componentType":5126,
			"count":11814,
			"type":"VEC2"
		},
		{
			"bufferView":6,
			"componentType":5126,
			"count":11814,
			"type":"VEC3"
		},
		{
			"bufferView":7,
			"componentType":5123,
			"count":13416,
			"type":"SCALAR"
		},
		{
			"bufferView":8,
			"componentType":5126,
			"count":16,
			"max":[
				0.9250985383987427,
				0.9517557621002197,
				0.14600567519664764
			],
			"min":[
				-0.7833349108695984,
				-0.9148210287094116,
				-0.9328832030296326
			],
			"type":"VEC3"
		},
		{
			"bufferView":9,
			"componentType":5123,
			"count":16,
			"type":"SCALAR"
		}
	],
	"bufferViews":[
		{
			"buffer":0,
			"byteLength":27312,
			"byteOffset":0,
			"target":34962
		},
		{
			"buffer":0,
			"byteLength":18208,
			"byteOffset":27312,
			"target":34962
		},
		{
			"buffer":0,
			"byteLength":27312,
			"byteOffset":45520,
			"target":34962
		},
		{
			"buffer":0,
			"byteLength":4584,
			"byteOffset":72832,
			"target":34963
		},
		{
			"buffer":0,
			"byteLength":141768,
			"byteOffset":77416,
			"target":34962
		},
		{
			"buffer":0,
			"byteLength":94512,
			"byteOffset":219184,
			"target":34962
		},
		{
			"buffer":0,
			"byteLength":141768,
			"byteOffset":313696,
			"target":34962
		},
		{
			"buffer":0,
			"byteLength":26832,
			"byteOffset":455464,
			"target":34963
		},
		{
			"buffer":0,
			"byteLength":192,
			"byteOffset":482296,
			"target":34962
		},
		{
			"buffer":0,
			"byteLength":32,
			"byteOffset":482488,
			"target":34963
		}
	],
	"buffers":[
		{
			"byteLength":482520,
			"uri":"data:application/octet-stream;base64,"
		}
	]
}
