{
	"asset":{
		"generator":"Khronos glTF Blender I/O v3.5.30",
		"version":"2.0"
	},
	"scene":0,
	"scenes":[
		{
			"name":"Scene",
			"nodes":[
				0,
				1
			]
		}
	],
	"nodes":[
		{
			"mesh":0,
			"name":"Cube"
		},
		{
			"mesh":1,
			"name":"Cube.001",
			"rotation":[
				0,
				0.958000659942627,
				0,
				0.2867659628391266
			],
			"scale":[
				3.7696259021759033,
				3.013218879699707,
				4.741175651550293
			],
			"translation":[
				-0.6146764755249023,
				4.278728008270264,
				-0.24930179119110107
			]
		}
	],
	"materials":[
		{
			"doubleSided":true,
			"name":"Material",
			"pbrMetallicRoughness":{
				"baseColorFactor":[
					0.800000011920929,
					0.800000011920929,
					0.800000011920929,
					1
				],
				"metallicFactor":0,
				"roughnessFactor":0.5
			}
		},
		{
			"doubleSided":true,
			"name":"Rock",
			"pbrMetallicRoughness":{
				"baseColorFactor":[
					0.11898370087146759,
					0.12596769630908966,
					0.137583926320076,
					0.8810163140296936
				],
				"metallicFactor":0,
				"roughnessFactor":0.5
			}
		},
		{
			"doubleSided":true,
			"name":"Red.001",
			"pbrMetallicRoughness":{
				"baseColorFactor":[
					0.8000000715255737,
					0.011049880646169186,
					0,
					0.19999992847442627
				],
				"metallicFactor":0,
				"roughnessFactor":0.5
			}
		},
		{
			"doubleSided":true,
			"name":"White.001",
			"pbrMetallicRoughness":{
				"baseColorFactor":[
					1,
					1,
					1,
					0
				],
				"metallicFactor":0,
				"roughnessFactor":0.5
			}
		},
		{
			"doubleSided":true,
			"name":"Concrete.001",
			"pbrMetallicRoughness":{
				"baseColorFactor":[
					0.09850400686264038,
					0.08239705115556717,
					0.0707792341709137,
					0.9014959931373596
				],
				"metallicFactor":0,
				"roughnessFactor":0.5
			}
		},
		{
			"doubleSided":true,
			"name":"Metal.001",
			"pbrMetallicRoughness":{
				"baseColorFactor":[
					0.04357168823480606,
					0.056346289813518524,
					0.05780255049467087,
					0.9564282894134521
				],
				"metallicFactor":0,
				"roughnessFactor":0.5
			}
		},
		{
			"doubleSided":true,
			"name":"Yellow.001",
			"pbrMetallicRoughness":{
				"baseColorFactor":[
					0.8000000715255737,
					0.6155490279197693,
					0.06358105689287186,
					0.19999992847442627
				],
				"metallicFactor":0,
				"roughnessFactor":0.5
			}
		},
		{
			"doubleSided":true,
			"name":"Black.001",
			"pbrMetallicRoughness":{
				"baseColorFactor":[
					0,
					0,
					0,
					1
				],
				"metallicFactor":0,
				"roughnessFactor":0.5
			}
		},
		{
			"doubleSided":true,
			"name":"Stone",
			"pbrMetallicRoughness":{
				"baseColorFactor":[
					0.1622682362794876,
					0.16033940017223358,
					0.1959882378578186,
					0.8377317786216736
				],
				"metallicFactor":0,
				"roughnessFactor":0.5
			}
		},
		{
			"doubleSided":true,
			"name":"Rock02",
			"pbrMetallicRoughness":{
				"baseColorFactor":[
					0.030929943546652794,
					0.03254444897174835,
					0.03521791473031044,
					0.9690700769424438
				],
				"metallicFactor":0,
				"roughnessFactor":0.5
			}
		}
	],
	"meshes":[
		{
			"name":"Cube",
			"primitives":[
				{
					"attributes":{
						"POSITION":0,
						"TEXCOORD_0":1,
						"NORMAL":2
					},
					"indices":3,
					"material":0
				}
			]
		},
		{
			"name":"Cube.004",
			"primitives":[
				{
					"attributes":{
						"POSITION":4,
						"TEXCOORD_0":5,
						"NORMAL":6
					},
					"indices":7,
					"material":1
				},
				{
					"attributes":{
						"POSITION":8,
						"TEXCOORD_0":9,
						"NORMAL":10
					},
					"indices":11,
					"material":2
				},
				{
					"attributes":{
						"POSITION":12,
						"TEXCOORD_0":13,
						"NORMAL":14
					},
					"indices":15,
					"material":3
				},
				{
					"attributes":{
						"POSITION":16,
						"TEXCOORD_0":17,
						"NORMAL":18
					},
					"indices":19,
					"material":4
				},
				{
					"attributes":{
						"POSITION":20,
						"TEXCOORD_0":21,
						"NORMAL":22
					},
					"indices":23,
					"material":5
				},
				{
					"attributes":{
						"POSITION":24,
						"TEXCOORD_0":25,
						"NORMAL":26
					},
					"indices":27,
					"material":6
				},
				{
					"attributes":{
						"POSITION":28,
						"TEXCOORD_0":29,
						"NORMAL":30
					},
					"indices":31,
					"material":7
				},
				{
					"attributes":{
						"POSITION":32,
						"TEXCOORD_0":33,
						"NORMAL":34
					},
					"indices":35,
					"material":8
				},
				{
					"attributes":{
						"POSITION":36,
						"TEXCOORD_0":37,
						"NORMAL":38
					},
					"indices":39,
					"material":9
				}
			]
		}
	],
	"accessors":[
		{
			"bufferView":0,
			"componentType":5126,
			"count":24,
			"max":[
				1,
				1,
				1
			],
			"min":[
				-1,
				-1,
				-1
			],
			"type":"VEC3"
		},
		{
			"bufferView":1,
			"componentType":5126,
			"count":24,
			"type":"VEC2"
		},
		{
			"bufferView":2,
			"componentType":5126,
			"count":24,
			"type":"VEC3"
		},
		{
			"bufferView":3,
			"componentType":5123,
			"count":36,
			"type":"SCALAR"
		},
		{
			"bufferView":4,
			"componentType":5126,
			"count":160,
			"max":[
				1.2452272176742554,
				0.5735297799110413,
				1.3657622337341309
			],
			"min":[
				-3.3057425022125244,
				-1.2283045053482056,
				-1.1280232667922974
			],
			"type":"VEC3"
		},
		{
			"bufferView":5,
			"componentType":5126,
			"count":160,
			"type":"VEC2"
		},
		{
			"bufferView":6,
			"componentType":5126,
			"count":160,
			"type":"VEC3"
		},
		{
			"bufferView":7,
			"componentType":5123,
			"count":264,
			"type":"SCALAR"
		},
		{
			"bufferView":8,
			"componentType":5126,
			"count":262,
			"max":[
				1.4708843231201172,
				11.354534149169922,
				2.531236171722412
			],
			"min":[
				-2.4083361625671387,
				2.3585078716278076,
				-2.1475815773010254
			],
			"type":"VEC3"
		},
		{
			"bufferView":9,
			"componentType":5126,
			"count":262,
			"type":"VEC2"
		},
		{
			"bufferView":10,
			"componentType":5126,
			"count":262,
			"type":"VEC3"
		},
		{
			"bufferView":11,
			"componentType":5123,
			"count":396,
			"type":"SCALAR"
		},
		{
			"bufferView":12,
			"componentType":5126,
			"count":1436,
			"max":[
				1.4954873323440552,
				11.421993255615234,
				2.562227249145508
			],
			"min":[
				-2.433075428009033,
				0.480318546295166,
				-2.177729606628418
			],
			"type":"VEC3"
		},
		{
			"bufferView":13,
			"componentType":5126,
			"count":1436,
			"type":"VEC2"
		},
		{
			"bufferView":14,
			"componentType":5126,
			"count":1436,
			"type":"VEC3"
		},
		{
			"bufferView":15,
			"componentType":5123,
			"count":2364,
			"type":"SCALAR"
		},
		{
			"bufferView":16,
			"componentType":5126,
			"count":36,
			"max":[
				0.4208376407623291,
				0.6647238731384277,
				0.3021804392337799
			],
			"min":[
				-0.5271291136741638,
				-0.6539325714111328,
				-0.37247341871261597
			],
			"type":"VEC3"
		},
		{
			"bufferView":17,
			"componentType":5126,
			"count":36,
			"type":"VEC2"
		},
		{
			"bufferView":18,
			"componentType":5126,
			"count":36,
			"type":"VEC3"
		},
		{
			"bufferView":19,
			"componentType":5123,
			"count":60,
			"type":"SCALAR"
		},
		{
			"bufferView":20,
			"componentType":5126,
			"count":658,
			"max":[
				0.5664548873901367,
				1.0669159889221191,
				0.19486428797245026
			],
			"min":[
				-0.3784971237182617,
				0.46428442001342773,
				-0.39700326323509216
			],
			"type":"VEC3"
		},
		{
			"bufferView":21,
			"componentType":5126,
			"count":658,
			"type":"VEC2"
		},
		{
			"bufferView":22,
			"componentType":5126,
			"count":658,
			"type":"VEC3"
		},
		{
			"bufferView":23,
			"componentType":5123,
			"count":1080,
			"type":"SCALAR"
		},
		{
			"bufferView":24,
			"componentType":5126,
			"count":842,
			"max":[
				0.5976485013961792,
				0.9632534980773926,
				0.30084460973739624
			],
			"min":[
				-0.5252518653869629,
				0.40413904190063477,
				-0.41513150930404663
			],
			"type":"VEC3"
		},
		{
			"bufferView":25,
			"componentType":5126,
			"count":842,
			"type":"VEC2"
		},
		{
			"bufferView":26,
			"componentType":5126,
			"count":842,
			"type":"VEC3"
		},
		{
			"bufferView":27,
			"componentType":5123,
			"count":1320,
			"type":"SCALAR"
		},
		{
			"bufferView":28,
			"componentType":5126,
			"count":4,
			"max":[
				0.1093222051858902,
				1.0085363388061523,
				-0.09925150871276855
			],
			"min":[
				0.08447812497615814,
				0.9193196296691895,
				-0.12928974628448486
			],
			"type":"VEC3"
		},
		{
			"bufferView":29,
			"componentType":5126,
			"count":4,
			"type":"VEC2"
		},
		{
			"bufferView":30,
			"componentType":5126,
			"count":4,
			"type":"VEC3"
		},
		{
			"bufferView":31,
			"componentType":5123,
			"count":6,
			"type":"SCALAR"
		},
		{
			"bufferView":32,
			"componentType":5126,
			"count":480,
			"max":[
				1.996002197265625,
				0.011753439903259277,
				2.0126407146453857
			],
			"min":[
				-3.926455497741699,
				-1.2029881477355957,
				-1.3686555624008179
			],
			"type":"VEC3"
		},
		{
			"bufferView":33,
			"componentType":5126,
			"count":480,
			"type":"VEC2"
		},
		{
			"bufferView":34,
			"componentType":5126,
			"count":480,
			"type":"VEC3"
		},
		{
			"bufferView":35,
			"componentType":5123,
			"count":792,
			"type":"SCALAR"
		},
		{
			"bufferView":36,
			"componentType":5126,
			"count":360,
			"max":[
				1.6865514516830444,
				-0.6712363362312317,
				2.2564265727996826
			],
			"min":[
				-3.4028961658477783,
				-1.2191016674041748,
				-1.4115172624588013
			],
			"type":"VEC3"
		},
		{
			"bufferView":37,
			"componentType":5126,
			"count":360,
			"type":"VEC2"
		},
		{
			"bufferView":38,
			"componentType":5126,
			"count":360,
			"type":"VEC3"
		},
		{
			"bufferView":39,
			"componentType":5123,
			"count":540,
			"type":"SCALAR"
		}
	],
	"bufferViews":[
		{
			"buffer":0,
			"byteLength":288,
			"byteOffset":0,
			"target":34962
		},
		{
			"buffer":0,
			"byteLength":192,
			"byteOffset":288,
			"target":34962
		},
		{
			"buffer":0,
			"byteLength":288,
			"byteOffset":480,
			"target":34962
		},
		{
			"buffer":0,
			"byteLength":72,
			"byteOffset":768,
			"target":34963
		},
		{
			"buffer":0,
			"byteLength":1920,
			"byteOffset":840,
			"target":34962
		},
		{
			"buffer":0,
			"byteLength":1280,
			"byteOffset":2760,
			"target":34962
		},
		{
			"buffer":0,
			"byteLength":1920,
			"byteOffset":4040,
			"target":34962
		},
		{
			"buffer":0,
			"byteLength":528,
			"byteOffset":5960,
			"target":34963
		},
		{
			"buffer":0,
			"byteLength":3144,
			"byteOffset":6488,
			"target":34962
		},
		{
			"buffer":0,
			"byteLength":2096,
			"byteOffset":9632,
			"target":34962
		},
		{
			"buffer":0,
			"byteLength":3144,
			"byteOffset":11728,
			"target":34962
		},
		{
			"buffer":0,
			"byteLength":792,
			"byteOffset":14872,
			"target":34963
		},
		{
			"buffer":0,
			"byteLength":17232,
			"byteOffset":15664,
			"target":34962
		},
		{
			"buffer":0,
			"byteLength":11488,
			"byteOffset":32896,
			"target":34962
		},
		{
			"buffer":0,
			"byteLength":17232,
			"byteOffset":44384,
			"target":34962
		},
		{
			"buffer":0,
			"byteLength":4728,
			"byteOffset":61616,
			"target":34963
		},
		{
			"buffer":0,
			"byteLength":432,
			"byteOffset":66344,
			"target":34962
		},
		{
			"buffer":0,
			"byteLength":288,
			"byteOffset":66776,
			"target":34962
		},
		{
			"buffer":0,
			"byteLength":432,
			"byteOffset":67064,
			"target":34962
		},
		{
			"buffer":0,
			"byteLength":120,
			"byteOffset":67496,
			"target":34963
		},
		{
			"buffer":0,
			"byteLength":7896,
			"byteOffset":67616,
			"target":34962
		},
		{
			"buffer":0,
			"byteLength":5264,
			"byteOffset":75512,
			"target":34962
		},
		{
			"buffer":0,
			"byteLength":7896,
			"byteOffset":80776,
			"target":34962
		},
		{
			"buffer":0,
			"byteLength":2160,
			"byteOffset":88672,
			"target":34963
		},
		{
			"buffer":0,
			"byteLength":10104,
			"byteOffset":90832,
			"target":34962
		},
		{
			"buffer":0,
			"byteLength":6736,
			"byteOffset":100936,
			"target":34962
		},
		{
			"buffer":0,
			"byteLength":10104,
			"byteOffset":107672,
			"target":34962
		},
		{
			"buffer":0,
			"byteLength":2640,
			"byteOffset":117776,
			"target":34963
		},
		{
			"buffer":0,
			"byteLength":48,
			"byteOffset":120416,
			"target":34962
		},
		{
			"buffer":0,
			"byteLength":32,
			"byteOffset":120464,
			"target":34962
		},
		{
			"buffer":0,
			"byteLength":48,
			"byteOffset":120496,
			"target":34962
		},
		{
			"buffer":0,
			"byteLength":12,
			"byteOffset":120544,
			"target":34963
		},
		{
			"buffer":0,
			"byteLength":5760,
			"byteOffset":120556,
			"target":34962
		},
		{
			"buffer":0,
			"byteLength":3840,
			"byteOffset":126316,
			"target":34962
		},
		{
			"buffer":0,
			"byteLength":5760,
			"byteOffset":130156,
			"target":34962
		},
		{
			"buffer":0,
			"byteLength":1584,
			"byteOffset":135916,
			"target":34963
		},
		{
			"buffer":0,
			"byteLength":4320,
			"byteOffset":137500,
			"target":34962
		},
		{
			"buffer":0,
			"byteLength":2880,
			"byteOffset":141820,
			"target":34962
		},
		{
			"buffer":0,
			"byteLength":4320,
			"byteOffset":144700,
			"target":34962
		},
		{
			"buffer":0,
			"byteLength":1080,
			"byteOffset":149020,
			"target":34963
		}
	],
	"buffers":[
		{
			"byteLength":150100,
			"uri":"data:application/octet-stream;base64,"
		}
	]
}
